<svg xmlns="http://www.w3.org/2000/svg" viewBox="0 0 3001.87 3333.33" shape-rendering="geometricPrecision" text-rendering="geometricPrecision" image-rendering="optimizeQuality" fill-rule="evenodd" clip-rule="evenodd"><path d="M2219.33 1921.05c169.98 0 324.14 69.17 435.8 180.38 111.66 111.66 180.38 265.37 180.38 435.8 0 124.32-37.07 240.5-100.36 337.25l266.72 290.68-183.99 168.17-257.23-283c-97.65 65.1-215.19 103.07-341.31 103.07-169.98 0-324.14-69.17-435.8-180.37-111.66-111.66-180.38-265.37-180.38-435.8 0-169.98 69.17-324.14 180.38-435.8 111.66-111.66 265.37-180.38 435.8-180.38zM536.66 1548.38c-39.2 0-71.86-35.47-71.86-78.4 0-43.87 31.73-78.4 71.86-78.4h614.13c39.2 0 71.87 35.46 71.87 78.4 0 43.86-31.73 78.4-71.87 78.4H536.66zM2302.51 476.92h257.59c50.4 0 97.07 20.54 129.73 54.13 33.6 33.6 54.13 79.33 54.13 129.73v1004.54c-5.5 57.54-146.77 58.29-158.67 0V660.78c0-7.47-2.8-14-7.46-18.67-4.67-4.67-11.2-7.46-18.67-7.46h-257.6v1030.67c-13.71 52.19-131.2 60.05-157.73 0V183.85c0-7.46-2.8-14-7.46-18.67-4.67-4.67-11.2-7.47-18.67-7.47H182.93c-7.47 0-14.01 2.8-18.67 7.47-4.67 4.67-7.46 11.2-7.46 18.67V2369.7c0 7.47 2.8 14 7.46 18.67 4.66 4.67 11.2 7.46 18.67 7.46h1153.69c79.46 8.16 81.83 145.53 0 157.74H598.25v293.06c0 7.46 2.8 14 7.47 18.67 4.67 4.67 11.2 7.46 18.67 7.46h712.24c57.56 6.48 76.07 137.35 0 157.73h-711.3c-50.4 0-97.07-20.53-129.73-54.13-33.6-33.6-54.13-79.33-54.13-129.73v-293.06h-257.6c-50.39 0-97.06-20.54-129.73-54.13-33.59-33.6-54.13-79.33-54.13-129.73V183.86c0-50.4 20.53-97.07 54.13-129.73C87.74 20.53 133.48 0 183.87 0h1934.78c50.4 0 97.07 20.53 129.74 54.13 33.6 33.6 54.13 79.33 54.13 129.73v293.06zM535.72 706.52c-39.2 0-71.86-35.46-71.86-78.4 0-43.86 31.74-78.4 71.86-78.4h1228.26c39.2 0 71.87 35.47 71.87 78.4 0 43.87-31.73 78.4-71.87 78.4H535.72zm0 420.93c-39.2 0-71.86-35.47-71.86-78.4 0-43.87 31.74-78.4 71.86-78.4h1228.26c39.2 0 71.87 35.46 71.87 78.4 0 43.87-31.73 78.4-71.87 78.4H535.72zm2011.22 1082.16c-83.81-83.81-199.78-135.87-327.61-135.87-127.83 0-243.8 52.06-327.61 135.87-83.82 83.82-135.87 199.79-135.87 327.62 0 127.83 52.05 243.8 135.87 327.61 83.82 83.82 199.78 135.87 327.61 135.87 127.83 0 243.8-52.05 327.61-135.87 83.82-83.82 135.87-199.78 135.87-327.61 0-127.83-52.05-243.8-135.87-327.62z" fill-rule="nonzero"/></svg>