<svg xmlns="http://www.w3.org/2000/svg" width="64" height="64" shape-rendering="geometricPrecision" text-rendering="geometricPrecision" image-rendering="optimizeQuality" fill-rule="evenodd" clip-rule="evenodd" viewBox="0 0 640 640"><path d="M237.747 508.483h168.404V566.086l31.323 68.398h-13.488l-51.733-51.095H348.5l-18.957 51.096H311l-11.906-51.096h-21.496l-51.91 51.096h-19.264l31.323-68.399v-57.603zm-231.7-52.548l161.967-240.18v270.488H.508c-1.535-11.114.248-22.465 5.54-30.307zM303.712 14.528c8.953-13.287 24.697-11.67 34.985 3.579 136.17 201.924 96.662 233.554 96.662 468.136H206.896c0-235.515-39.898-268.976 96.817-471.714zm170.541 204.605l157.266 233.212c6.484 9.603 9.307 22.418 8.28 33.898H474.254v-267.11z"/></svg>