<svg xmlns="http://www.w3.org/2000/svg" viewBox="0 0 3942.83 264.08">
    <path d="M3942.83 257.09h-28.65a98.92 98.92 0 01-70.24-29l-36.69-46.66a2.8 2.8 0 00-.28-.31 39.09 39.09 0 00-55.28 0l-47.67 47.67a32.11 32.11 0 01-45.38 0L3436.03 6.16a21 21 0 00-29.72 0l-112.57 112.56a14 14 0 01-19.82 0l-45.56-45.57a21 21 0 00-29.72 0l-83.88 83.82c-17.81 17.8-51.45 27.11-75.48 27.11h-63.93v-12.81l22-22a3.5 3.5 0 10-4.95-4.95l-17 17v-10.1l22-22a3.5 3.5 0 10-4.95-4.95l-17 17v-10.1l22-22a3.518 3.518 0 10-4.95-5l-17 17V86.82a3.5 3.5 0 00-7 0v34.21l-16.69-16.69a3.518 3.518 0 10-4.95 5l21.64 21.64v10.1l-16.69-16.69a3.5 3.5 0 00-4.95 4.95l21.64 21.64v10.1l-16.69-16.69a3.5 3.5 0 00-4.95 4.95l21.64 21.64v13.11h-53v-12.82l22-22a3.5 3.5 0 10-4.95-4.95l-17 17v-10.1l22-22a3.5 3.5 0 10-4.95-4.95l-17 17v-10.1l22-22a3.518 3.518 0 10-4.95-5l-17 17v-10.1l22-22a3.518 3.518 0 10-4.95-5l-17 17v-9.8l22-22a3.518 3.518 0 10-4.95-5l-17 17V46.82a3.5 3.5 0 00-7 0v34.21l-16.69-16.69a3.518 3.518 0 10-4.95 5l21.64 21.64v10.1l-16.69-16.69a3.518 3.518 0 10-4.95 5l21.64 21.64v10.1l-16.69-16.69a3.518 3.518 0 10-4.95 5l21.64 21.64v10.1l-16.69-16.69a3.5 3.5 0 00-4.95 4.95l21.64 21.64v10.1l-16.69-16.69a3.5 3.5 0 00-4.95 4.95l21.64 21.64v13.01h-53v-12.82l22-22a3.5 3.5 0 10-4.95-4.95l-17 17v-10.1l22-22a3.5 3.5 0 10-4.95-4.95l-17 17v-10.1l22-22a3.518 3.518 0 10-4.95-5l-17 17v-10.1l22-22a3.518 3.518 0 10-4.95-5l-17 17v-9.8l22-22a3.518 3.518 0 10-4.95-5l-17 17V46.82a3.5 3.5 0 00-7 0v34.21l-16.69-16.69a3.518 3.518 0 10-4.95 5L2849 90.98v10.1l-16.69-16.69a3.518 3.518 0 10-4.95 5l21.64 21.64v10.1l-16.69-16.69a3.518 3.518 0 10-4.95 5l21.64 21.64v10.1l-16.69-16.69a3.5 3.5 0 00-4.95 4.95l21.64 21.64v10.1l-16.69-16.69a3.5 3.5 0 00-4.95 4.95l21.64 21.64v13.01h-53v-12.82l22-22a3.5 3.5 0 10-4.95-4.95l-17 17v-10.1l22-22a3.5 3.5 0 10-4.95-4.95l-17 17v-10.1l22-22a3.518 3.518 0 10-4.95-5l-17 17v-10.1l22-22a3.518 3.518 0 10-4.95-5l-17 17v-9.8l22-22a3.518 3.518 0 10-4.95-5l-17 17V46.82a3.5 3.5 0 00-7 0v34.21l-16.69-16.69a3.518 3.518 0 10-4.95 5l21.64 21.64v10.1l-16.69-16.69a3.518 3.518 0 10-4.95 5l21.64 21.64v10.1l-16.69-16.69a3.518 3.518 0 10-4.95 5l21.64 21.64v10.1l-16.69-16.69a3.5 3.5 0 00-4.95 4.95l21.64 21.64v10.1l-16.69-16.69a3.5 3.5 0 00-4.95 4.95l21.64 21.64v13.01h-53v-12.82l22-22a3.5 3.5 0 10-4.95-4.95l-17 17v-10.1l22-22a3.5 3.5 0 10-4.95-4.95l-17 17v-10.1l22-22a3.518 3.518 0 10-4.95-5l-17 17v-10.1l22-22a3.518 3.518 0 10-4.95-5l-17 17v-9.8l22-22a3.518 3.518 0 10-4.95-5l-17 17V46.82a3.5 3.5 0 00-7 0v34.21l-16.69-16.69a3.518 3.518 0 10-4.95 5l21.64 21.64v10.1l-16.69-16.69a3.518 3.518 0 10-4.95 5l21.64 21.64v10.1l-16.69-16.69a3.518 3.518 0 10-4.95 5l21.64 21.64v10.1l-16.69-16.69a3.5 3.5 0 00-4.95 4.95l21.64 21.64v10.1l-16.69-16.69a3.5 3.5 0 00-4.95 4.95l21.64 21.64v13.01h-53v-12.82l22-22a3.5 3.5 0 10-4.95-4.95l-17 17v-10.1l22-22a3.5 3.5 0 10-4.95-4.95l-17 17v-10.1l22-22a3.518 3.518 0 10-4.95-5l-17 17V86.82a3.5 3.5 0 00-7 0v34.21l-16.69-16.69a3.518 3.518 0 10-4.95 5l21.64 21.64v10.1l-16.69-16.69a3.5 3.5 0 00-4.95 4.95l21.64 21.64v10.1l-16.69-16.69a3.5 3.5 0 00-4.95 4.95l21.64 21.64v13.11h-111.73a3.93 3.93 0 01-3.92-3.92v-22.75h12.4a6.9 6.9 0 004.87-11.77l-38.58-38.56a26 26 0 00-18.49-7.65h-60a25.93 25.93 0 00-18.48 7.65l-38.58 38.58a6.89 6.89 0 004.87 11.77h12.31v22.74a3.93 3.93 0 01-3.92 3.92 127.42 127.42 0 01-90.69-37.56l-25.19-25.26a135.26 135.26 0 00-191.29 0l-4.11 4.1a72.46 72.46 0 01-48.08 21.29v-34.42a3.5 3.5 0 00-3.5-3.5h-45.67a3.5 3.5 0 00-3.5 3.5v33.5h-10v-40.17a27.17 27.17 0 00-54.33 0v39.38h-6.07a99.42 99.42 0 01-70.74-29.3 107 107 0 00-151.38 0l-112.16 112.12a99.38 99.38 0 01-70.75 29.3h-327.42V40.58a3.5 3.5 0 00-3.5-3.5h-33.58a3.5 3.5 0 00-3.5 3.5v216.51h-10.09v-54.67a13.35 13.35 0 00-13.33-13.33 6.34 6.34 0 01-6.33-6.33 13.35 13.35 0 00-13.34-13.33h-21.25a3.5 3.5 0 00-3.5 3.5v84.16h-10.25V65.92a3.5 3.5 0 00-6.47-1.85 174.3 174.3 0 00-26.11 91.79v101.23h-10.08V140.92a3.5 3.5 0 00-3.5-3.5h-22.34a8.18 8.18 0 01-8.16-8.17 15.19 15.19 0 00-15.17-15.16h-33.25a3.5 3.5 0 00-3.5 3.5v139.5h-10.08V103.25a18.5 18.5 0 10-37 0v153.84h-10.06V154.44a18.31 18.31 0 00-36.61 0v102.65H513.27a4.75 4.75 0 010-9.5h6.17a228.82 228.82 0 0051.63-5.91c3.54-.82 6.88-1.59 9.58-2.23a5.37 5.37 0 00.45-10.33 220.76 220.76 0 00-68.35-11.08l-129.62-.44-35.54-38.39a3.53 3.53 0 00-2.57-1.12h-11.5a3.5 3.5 0 00-3.29 4.7l9.67 26.43a10.69 10.69 0 01-7.28 14 3.5 3.5 0 000 6.76l60.74 16.26a25.31 25.31 0 006.54.86h26.88a4.75 4.75 0 014.75 4.75v.5a4.75 4.75 0 01-4.75 4.75H274.09a13.26 13.26 0 01-13.1-11.07 95.52 95.52 0 00-90.9-80.86V121.1c0-8.45 4-13.06 9-18.9 3.58-4.12 7.63-8.8 10.46-15.39l.19-.44a3.45 3.45 0 00.28-1.41l-.19-26.73a3.52 3.52 0 00-.64-2l-5.77-8.14a6.8 6.8 0 010-7.8l3.29-4.73a3.47 3.47 0 00.63-2v-10a3.5 3.5 0 00-3.5-3.5h-61.61a3.5 3.5 0 00-3.5 3.5v10a3.49 3.49 0 00.63 2l3.24 4.67a6.78 6.78 0 01-.08 7.86l-5.85 8.1a1.74 1.74 0 00-.11.18 2.08 2.08 0 00-.2.36l-.09.22a2.91 2.91 0 00-.12.39 1.42 1.42 0 000 .22 4.07 4.07 0 00-.07.61v27a3.36 3.36 0 00.08.71 3.49 3.49 0 00.21.67c2.87 6.6 6.93 11.31 10.52 15.46 5.13 6 9.18 10.65 9.17 19.23v43.83a95.52 95.52 0 00-90.9 80.86 13.26 13.26 0 01-13.21 11.16H0v7h32a20.3 20.3 0 0020-17 88.52 88.52 0 0187.47-75 3.49 3.49 0 003.5-3.49v-47.27c0-11.18-5.52-17.6-10.87-23.8a72.1 72.1 0 01-6.79-8.78h55.3a69.21 69.21 0 01-6.84 8.86c-5.29 6.11-10.75 12.43-10.74 23.49l.06 47.5a3.49 3.49 0 003.5 3.49 88.52 88.52 0 0187.47 75 20.3 20.3 0 0020 17h152.71a11.76 11.76 0 0011.75-11.76v-.5a11.76 11.76 0 00-11.75-11.74h-26.88a18.39 18.39 0 01-4.73-.62l-52.75-14.12a17.69 17.69 0 004.11-18.55l-8-21.71h5l35.54 38.38a3.48 3.48 0 002.55 1.12l131.14.45a213.73 213.73 0 0160.53 8.95l-3.76.88a221.91 221.91 0 01-50.05 5.72h-6.17a11.75 11.75 0 000 23.5h344.72a3.5 3.5 0 003.5-3.5V154.44a11.31 11.31 0 0122.61 0v106.14a3.5 3.5 0 003.5 3.5h17.06a3.5 3.5 0 003.5-3.5V103.25a11.5 11.5 0 1123 0v157.33a3.5 3.5 0 003.5 3.5h17.08a3.5 3.5 0 003.5-3.5V121.09h29.75a8.19 8.19 0 018.17 8.17 15.18 15.18 0 0015.16 15.17h18.84v116.15a3.5 3.5 0 003.5 3.5h17.08a3.5 3.5 0 003.5-3.5V155.86a167.26 167.26 0 0118.58-76.66v181.38a3.5 3.5 0 003.5 3.5h17.25a3.5 3.5 0 003.5-3.5v-84.16h17.75a6.34 6.34 0 016.34 6.33 13.35 13.35 0 0013.33 13.34 6.34 6.34 0 016.33 6.34v58.16a3.5 3.5 0 003.5 3.5h17.09a3.5 3.5 0 003.5-3.5V44.09h26.58v216.5a3.5 3.5 0 003.5 3.5h330.92a106.34 106.34 0 0075.7-31.35l112.12-112.12a100 100 0 01141.48 0 106.34 106.34 0 0075.69 31.35h9.59a3.5 3.5 0 003.5-3.5v-42.89a20.17 20.17 0 0140.33 0v43.67a3.5 3.5 0 003.5 3.5h17a3.5 3.5 0 003.5-3.5v-33.5h38.67v34.5a3.5 3.5 0 003.5 3.5 79.42 79.42 0 0056.53-23.42l4.11-4.1a128.26 128.26 0 01181.39 0l25.24 25.23a134.35 134.35 0 0095.62 39.63 10.93 10.93 0 0010.92-10.92v-22.86a6.9 6.9 0 00-6.89-6.89h-12.16l38.39-38.39a19.06 19.06 0 0113.54-5.6h60a19 19 0 0113.54 5.6l38.39 38.4h-12.24a6.9 6.9 0 00-6.89 6.89v22.85a10.93 10.93 0 0010.91 10.92h481.36c25.47 0 61.27-10 80.43-29.16l83.88-83.84a14 14 0 0119.82 0l45.56 45.57a21 21 0 0029.72 0l112.57-112.57a14 14 0 0119.82 0l222.61 222.61a39.09 39.09 0 0055.28 0l47.67-47.61a32.11 32.11 0 0145.24-.14l36.69 46.66a4.12 4.12 0 00.28.31 105.83 105.83 0 0075.33 31.2h28.65zM123 61.74h59.84l.14 20h-60zm5.2-9.55a13.8 13.8 0 001.51-13.45h46.6a13.81 13.81 0 001.4 13.42l1.81 2.58h-53.16zm52.11-25.1v4.66h-53.79a3.31 3.31 0 00-.77.09v-4.75z" fill="#007bff" />
</svg>